<?xml version="1.0" encoding="iso-8859-1"?>
<!-- Generator: Adobe Illustrator 16.0.0, SVG Export Plug-In . SVG Version: 6.00 Build 0)  -->
<!DOCTYPE svg PUBLIC "-//W3C//DTD SVG 1.1//EN" "http://www.w3.org/Graphics/SVG/1.1/DTD/svg11.dtd">
<svg version="1.1" id="Capa_1" xmlns="http://www.w3.org/2000/svg" xmlns:xlink="http://www.w3.org/1999/xlink" x="0px" y="0px"
	 width="79.536px" height="79.536px" viewBox="0 0 79.536 79.536" style="enable-background:new 0 0 79.536 79.536;"
	 xml:space="preserve">
<g>
	<path d="M66.56,28.446l12.977-7.208l-2.863-1.548L52.988,6.786l-13.049,7.12L26.533,6.61L0,21.044
		l2.822,1.59l10.343,5.748l-0.122,0.06h-0.01v0.01L0.228,35.429l12.806,6.882v17.303l26.729,13.312l26.735-13.312V42.36
		l12.914-6.936L66.56,28.446z M52.988,10.861l19.112,10.405l-9.248,5.147L43.518,16.026L52.988,10.861z M7.413,21.08l19.115-10.402
		l9.476,5.16L16.661,26.23L7.413,21.08z M7.736,35.413l9.471-5.175l19.312,10.444l-9.45,5.105L7.736,35.413z M16.617,57.387V44.245
		l10.488,5.628l10.876-6.043v24.192L16.617,57.387z M62.925,57.387L41.565,68.018V43.799l10.931,6.074l10.429-5.598V57.387z
		 M71.883,35.403L52.537,45.787l-9.284-5.105l19.133-10.444L71.883,35.403z"/>
</g>
</svg>
