<?xml version="1.0" encoding="iso-8859-1"?>
<!-- Generator: Adobe Illustrator 16.0.0, SVG Export Plug-In . SVG Version: 6.00 Build 0)  -->
<!DOCTYPE svg PUBLIC "-//W3C//DTD SVG 1.1//EN" "http://www.w3.org/Graphics/SVG/1.1/DTD/svg11.dtd">
<svg version="1.1" id="Capa_1" xmlns="http://www.w3.org/2000/svg" xmlns:xlink="http://www.w3.org/1999/xlink" x="0px" y="0px"
	 width="612px" height="612px" viewBox="0 0 612 612" style="enable-background:new 0 0 612 612;" xml:space="preserve">
<g>
	<g id="web_-_share_network">
		<g>
			<path d="M497.25,344.25c-43.987,0-81.778,25.054-101.019,61.392l-169.447-75.238c1.683-7.879,2.716-16.026,2.716-24.403
				c0-5.584-0.88-10.978-1.645-16.371l172.087-76.423c20.233,32.627,56.112,54.544,97.308,54.544C560.63,267.75,612,216.38,612,153
				c0-63.342-51.37-114.75-114.75-114.75S382.5,89.62,382.5,153c0,8.377,1.033,16.524,2.716,24.403L215.768,252.68
				c-19.24-36.376-57.031-61.43-101.018-61.43C51.37,191.25,0,242.62,0,306c0,63.38,51.37,114.75,114.75,114.75
				c41.233,0,77.074-21.917,97.308-54.545l172.086,76.424c-0.765,5.394-1.645,10.748-1.645,16.371
				c0,63.38,51.37,114.75,114.75,114.75S612,522.38,612,459S560.63,344.25,497.25,344.25z M497.25,76.5
				c42.267,0,76.5,34.272,76.5,76.5c0,42.266-34.233,76.5-76.5,76.5s-76.5-34.234-76.5-76.5S454.983,76.5,497.25,76.5z
				 M114.75,382.5c-42.266,0-76.5-34.272-76.5-76.5c0-42.266,34.234-76.5,76.5-76.5s76.5,34.272,76.5,76.5
				C191.25,348.228,157.016,382.5,114.75,382.5z M497.25,535.462c-42.267,0-76.5-34.234-76.5-76.462s34.233-76.5,76.5-76.5
				s76.5,34.272,76.5,76.5S539.517,535.462,497.25,535.462z"/>
		</g>
	</g>
</g>
<g>
</g>
<g>
</g>
<g>
</g>
<g>
</g>
<g>
</g>
<g>
</g>
<g>
</g>
<g>
</g>
<g>
</g>
<g>
</g>
<g>
</g>
<g>
</g>
<g>
</g>
<g>
</g>
<g>
</g>
</svg>
