<?xml version="1.0" encoding="iso-8859-1"?>
<!-- Generator: Adobe Illustrator 19.0.0, SVG Export Plug-In . SVG Version: 6.00 Build 0)  -->
<svg version="1.1" id="Capa_1" xmlns="http://www.w3.org/2000/svg" xmlns:xlink="http://www.w3.org/1999/xlink" x="0px" y="0px"
	 viewBox="0 0 470 470" style="enable-background:new 0 0 470 470;" xml:space="preserve">
<g>
	<path d="M358.662,46.659H111.338C49.946,46.659,0,96.605,0,157.997v257.844c0,4.143,3.358,7.5,7.5,7.5h455
		c4.142,0,7.5-3.357,7.5-7.5V157.997C470,96.605,420.054,46.659,358.662,46.659z M397.164,408.341H280.511
		c-3.455-30.285-27.55-54.38-57.835-57.835V165.497h79.233v14.571c0,20.362,16.566,36.929,36.929,36.929
		s36.929-16.566,36.929-36.929v-14.571H455v185.009C424.715,353.961,400.619,378.056,397.164,408.341z M15,365.623
		c22.005,3.272,39.445,20.713,42.718,42.718H15V365.623z M360.767,150.497h-43.857v-14.571c0-12.092,9.837-21.929,21.929-21.929
		s21.929,9.837,21.929,21.929V150.497z M331.338,165.497v5.272c0,4.143,3.358,7.5,7.5,7.5s7.5-3.357,7.5-7.5v-5.272h14.429v14.571
		c0,12.092-9.837,21.929-21.929,21.929s-21.929-9.837-21.929-21.929v-14.571H331.338z M15,350.506V200.421h58.575
		c4.142,0,7.5-3.357,7.5-7.5s-3.358-7.5-7.5-7.5H15v-19.924h192.676v54.849H103.575c-4.142,0-7.5,3.357-7.5,7.5s3.358,7.5,7.5,7.5
		h104.101v19.924h-27.038c-4.142,0-7.5,3.357-7.5,7.5s3.358,7.5,7.5,7.5h27.038v80.236c-30.285,3.455-54.38,27.55-57.835,57.835
		H72.835C69.38,378.056,45.285,353.961,15,350.506z M207.676,365.623v42.718h-42.718
		C168.231,386.336,185.671,368.896,207.676,365.623z M222.676,365.623c22.005,3.272,39.445,20.713,42.718,42.718h-42.718V365.623z
		 M375.767,150.497v-14.571c0-20.362-16.566-36.929-36.929-36.929s-36.929,16.566-36.929,36.929v14.571h-79.492
		c-2.536-37.936-24.154-70.729-55.32-88.838h191.564c50.597,0,92.209,39.208,96.048,88.838H375.767z M111.338,61.659
		c50.597,0,92.208,39.208,96.048,88.838H15.29C19.13,100.867,60.74,61.659,111.338,61.659z M412.282,408.341
		c3.272-22.006,20.713-39.445,42.718-42.718v42.718H412.282z"/>
	<path d="M73.575,220.346H39.038c-4.142,0-7.5,3.357-7.5,7.5s3.358,7.5,7.5,7.5h34.538c4.142,0,7.5-3.357,7.5-7.5
		S77.717,220.346,73.575,220.346z"/>
</g>
<g>
</g>
<g>
</g>
<g>
</g>
<g>
</g>
<g>
</g>
<g>
</g>
<g>
</g>
<g>
</g>
<g>
</g>
<g>
</g>
<g>
</g>
<g>
</g>
<g>
</g>
<g>
</g>
<g>
</g>
</svg>
