<?xml version="1.0" encoding="UTF-8" standalone="no"?>
<svg width="9811px" height="1615px" viewBox="0 0 9811 1615" version="1.1" xmlns="http://www.w3.org/2000/svg" xmlns:xlink="http://www.w3.org/1999/xlink" xmlns:sketch="http://www.bohemiancoding.com/sketch/ns">
    <!-- Generator: Sketch 3.5.1 (25234) - http://www.bohemiancoding.com/sketch -->
    <title>logo-name-small-white</title>
    <desc>Created with Sketch.</desc>
    <defs></defs>
    <g id="Page-1" stroke="none" stroke-width="1" fill-rule="evenodd" sketch:type="MSPage">
        <g id="logo-name-small-white" sketch:type="MSLayerGroup">
            <path d="M2629.97082,510.704128 L2684.41993,510.704128 L2684.41993,1252.57316 C2684.41993,1353.53137 2649.25523,1439.17442 2578.92479,1509.50486 C2508.59435,1579.83531 2422.38413,1615 2320.29155,1615 C2197.78046,1615 2100.79396,1567.92468 2029.32915,1473.77264 L2032.73222,1388.69592 C2064.49436,1443.14529 2106.18154,1486.53399 2157.79501,1518.8633 C2209.40848,1551.19262 2263.57345,1567.35703 2320.29155,1567.35703 C2404.23434,1567.35703 2476.83241,1537.01331 2538.08796,1476.32494 C2599.34351,1415.63657 2629.97082,1342.75491 2629.97082,1257.67776 L2629.97082,1128.36114 C2574.38709,1239.52862 2477.40059,1295.11152 2339.00843,1295.11152 C2244.85638,1295.11152 2164.31789,1261.93193 2097.39053,1195.57175 C2030.46318,1129.21158 1997,1049.52384 1997,956.506159 L1997,510.704128 L2051.4491,510.704128 L2051.4491,956.506159 C2051.4491,1034.77714 2080.09131,1102.83783 2137.37659,1160.6903 C2194.66187,1218.54276 2262.43899,1247.46855 2340.70996,1247.46855 C2418.98094,1247.46855 2486.75805,1218.54276 2544.04333,1160.6903 C2601.32861,1102.83783 2629.97082,1034.77714 2629.97082,956.506159 L2629.97082,510.704128 Z M3635.5777,510.704128 L3635.5777,1276.39464 L3581.12859,1276.39464 L3581.12859,1085.82278 C3549.36646,1150.48141 3501.72397,1201.52694 3438.1997,1238.96088 C3374.67543,1276.39483 3306.61473,1295.11152 3234.01556,1295.11152 C3122.84809,1295.11152 3027.56311,1255.69303 2948.15777,1176.85487 C2868.75243,1098.01672 2829.05036,1003.5825 2829.05036,893.549384 C2829.05036,783.516271 2868.75243,689.082053 2948.15777,610.243895 C3027.56311,531.405736 3122.84809,491.987249 3234.01556,491.987249 C3306.61473,491.987249 3376.09336,511.271113 3442.45353,549.839421 C3508.81371,588.407728 3555.03827,639.453252 3581.12859,702.977523 L3581.12859,510.704128 L3635.5777,510.704128 Z M2988.14383,1142.82418 C3057.90709,1212.58745 3140.71427,1247.46855 3236.56786,1247.46855 C3332.42145,1247.46855 3414.37787,1212.58745 3482.43959,1142.82418 C3550.50131,1073.06092 3584.53166,990.253739 3584.53166,894.400151 C3584.53166,798.546563 3550.21773,715.455794 3481.58883,645.125351 C3412.95993,574.794908 3331.0035,539.630214 3235.7171,539.630214 C3140.43069,539.630214 3057.90709,575.078494 2988.14383,645.976118 C2918.38057,716.873743 2883.49946,799.964512 2883.49946,895.250919 C2883.49946,990.537325 2918.38057,1073.06092 2988.14383,1142.82418 L2988.14383,1142.82418 Z M4122.21656,539.630214 C4062.09537,539.630214 4009.06474,562.317113 3963.12308,607.691593 C3917.18142,653.066072 3894.21094,705.813113 3894.21094,765.934299 L3894.21094,1276.39464 L3839.76183,1276.39464 L3839.76183,510.704128 L3894.21094,510.704128 L3894.21094,624.706938 C3914.62945,586.13863 3946.39111,554.376971 3989.49687,529.421007 C4032.60262,504.465043 4080.81228,491.987249 4134.1273,491.987249 C4187.44231,491.987249 4238.48783,510.136768 4287.2654,546.436352 L4287.2654,614.497731 C4237.35347,564.585803 4182.33774,539.630214 4122.21656,539.630214 L4122.21656,539.630214 Z M4486.34493,1276.39464 L4431.89583,1276.39464 L4431.89583,510.704128 L4486.34493,510.704128 L4486.34493,665.543765 C4544.19739,549.838842 4642.88541,491.987249 4782.41193,491.987249 C4877.69834,491.987249 4957.66966,524.883253 5022.32829,590.676248 C5086.98692,656.469243 5119.31576,736.440564 5119.31576,830.592609 L5119.31576,1276.39464 L5064.86665,1276.39464 L5064.86665,830.592609 C5064.86665,752.321632 5037.35879,684.260933 4982.34223,626.408472 C4927.32567,568.556011 4860.68291,539.630214 4782.41193,539.630214 C4704.14095,539.630214 4635.2295,568.556011 4575.67549,626.408472 C4516.12149,684.260933 4486.34493,752.321632 4486.34493,830.592609 L4486.34493,1276.39464 Z M6085.78734,537.928679 C6056.29392,537.928679 6030.20399,547.570612 6007.51675,566.854766 C5984.82951,586.138919 5973.48606,609.960164 5973.48606,638.319213 C5973.48606,666.678263 5986.24744,692.768197 6011.77059,716.589799 C6037.29373,740.411401 6067.92104,762.247541 6103.65345,782.098876 C6139.38585,801.950211 6175.4013,823.219179 6211.70089,845.906419 C6248.00047,868.593659 6278.91137,897.519455 6304.43451,932.684677 C6329.95766,967.849898 6342.71904,1008.11914 6342.71904,1053.49362 C6342.71904,1120.42098 6317.47986,1177.42182 6267.00076,1224.49784 C6216.52165,1271.57386 6155.55061,1295.11152 6084.0858,1295.11152 C6038.71132,1295.11152 5996.45697,1285.186 5957.32148,1265.33467 C5918.18599,1245.48333 5889.54378,1219.10981 5871.39399,1186.21331 L5871.39399,1104.53966 C5914.49975,1199.82607 5983.69479,1247.46855 6078.9812,1247.46855 C6137.96802,1247.46855 6187.59561,1229.31903 6227.86546,1193.01945 C6268.13531,1156.71987 6288.26994,1116.16703 6288.26994,1071.35974 C6288.26994,1026.55244 6275.50856,988.835468 6249.98541,958.207694 C6224.46227,927.57992 6193.55137,901.489986 6157.25178,879.937108 C6120.9522,858.384231 6084.93675,837.115262 6049.20434,816.129566 C6013.47194,795.143869 5982.84463,769.621107 5957.32148,739.560514 C5931.79834,709.499922 5919.03696,674.335228 5919.03696,634.065377 C5919.03696,593.795527 5935.20137,559.765178 5967.53069,531.973309 C5999.86001,504.18144 6041.54718,490.285714 6092.59347,490.285714 C6143.63976,490.285714 6187.31204,510.136751 6223.61163,549.839421 L6223.61163,619.602334 C6187.31204,565.152959 6141.37107,537.928679 6085.78734,537.928679 L6085.78734,537.928679 Z M6778.31187,1238.96088 L6778.31187,1286.60385 C6697.77216,1286.60385 6629.14429,1259.66315 6572.42619,1205.78096 C6515.70809,1151.89877 6487.34947,1082.98731 6487.34947,999.044521 L6487.34947,202.726389 L6541.79857,202.726389 L6541.79857,512.405662 L6776.61033,512.405662 L6776.61033,560.048628 L6541.79857,560.048628 L6541.79857,999.044521 C6541.79857,1068.2406 6564.76906,1125.52502 6610.71072,1170.8995 C6656.65238,1216.27398 6712.51887,1238.96088 6778.31187,1238.96088 L6778.31187,1238.96088 Z M7530.3901,510.704128 L7584.8392,510.704128 L7584.8392,1276.39464 L7530.3901,1276.39464 L7530.3901,1121.555 C7472.53764,1237.25993 7373.84963,1295.11152 7234.3231,1295.11152 C7139.0367,1295.11152 7059.06538,1262.21552 6994.40674,1196.42252 C6929.74811,1130.62952 6897.41928,1050.6582 6897.41928,956.506159 L6897.41928,510.704128 L6951.86838,510.704128 L6951.86838,956.506159 C6951.86838,1034.77714 6979.37625,1102.83783 7034.3928,1160.6903 C7089.40936,1218.54276 7156.05213,1247.46855 7234.3231,1247.46855 C7312.59408,1247.46855 7381.50554,1218.54276 7441.05954,1160.6903 C7500.61355,1102.83783 7530.3901,1034.77714 7530.3901,956.506159 L7530.3901,510.704128 Z M8535.99697,0.243786471 L8535.99697,1276.39464 L8481.54787,1276.39464 L8481.54787,1090.92738 C8447.51701,1153.31729 8398.17301,1202.94488 8333.51437,1239.81165 C8268.85574,1276.67841 8202.49656,1295.11152 8134.43484,1295.11152 C8022.133,1295.11152 7926.56444,1255.69303 7847.72628,1176.85487 C7768.88812,1098.01672 7729.46963,1003.5825 7729.46963,893.549384 C7729.46963,783.516271 7768.88812,689.082053 7847.72628,610.243895 C7926.56444,531.405736 8022.133,491.987249 8134.43484,491.987249 C8204.76528,491.987249 8272.54239,510.703941 8337.76821,548.137886 C8402.99402,585.571832 8450.9201,635.483011 8481.54787,697.87292 L8481.54787,0.243786471 L8535.99697,0.243786471 Z M7886.01081,1142.82418 C7954.07253,1212.58745 8036.02895,1247.46855 8131.88254,1247.46855 C8227.73613,1247.46855 8310.54331,1212.58745 8380.30657,1142.82418 C8450.06983,1073.06092 8484.95094,990.537325 8484.95094,895.250919 C8484.95094,799.964512 8450.06983,716.873743 8380.30657,645.976118 C8310.54331,575.078494 8228.01971,539.630214 8132.7333,539.630214 C8037.4469,539.630214 7955.49047,574.794908 7886.86157,645.125351 C7818.23267,715.455794 7783.91874,798.546563 7783.91874,894.400151 C7783.91874,990.253739 7817.94909,1073.06092 7886.01081,1142.82418 L7886.01081,1142.82418 Z M8816.75016,512.405662 L8816.75016,1276.39464 L8762.30106,1276.39464 L8762.30106,512.405662 L8816.75016,512.405662 Z M8740.18111,279.29544 C8740.18111,248.667666 8756.62911,233.354009 8789.52561,233.354009 C8822.42211,233.354009 8838.87011,248.667666 8838.87011,279.29544 C8838.87011,309.923213 8822.42211,325.236871 8789.52561,325.236871 C8756.62911,325.236871 8740.18111,309.923213 8740.18111,279.29544 L8740.18111,279.29544 Z M9117.92176,1173.4518 C9039.65079,1092.34492 9000.51589,997.910704 9000.51589,890.146315 C9000.51589,782.381926 9040.21796,689.082053 9119.6233,610.243895 C9199.02864,531.405736 9294.5972,491.987249 9406.33186,491.987249 C9518.06651,491.987249 9613.35149,531.405736 9692.18965,610.243895 C9771.02781,689.082053 9810.44629,782.665513 9810.44629,890.997082 C9810.44629,999.328652 9771.87856,1093.76287 9694.74195,1174.30257 C9617.60533,1254.84227 9524.02187,1295.11152 9413.98876,1295.11152 L9398.67495,1295.11152 C9289.7762,1295.11152 9196.19274,1254.55869 9117.92176,1173.4518 L9117.92176,1173.4518 Z M9653.05435,645.125351 C9584.42545,574.794908 9502.46903,539.630214 9407.18262,539.630214 C9311.89622,539.630214 9229.37262,575.078494 9159.60936,645.976118 C9089.8461,716.873743 9054.96499,799.964512 9054.96499,895.250919 C9054.96499,990.537325 9089.8461,1073.06092 9159.60936,1142.82418 C9229.37262,1212.58745 9312.1798,1247.46855 9408.03339,1247.46855 C9503.88698,1247.46855 9585.8434,1212.58745 9653.90512,1142.82418 C9721.96684,1073.06092 9755.99719,990.253739 9755.99719,894.400151 C9755.99719,798.546563 9721.68326,715.455794 9653.05435,645.125351 L9653.05435,645.125351 Z" id="yarn-studio" sketch:type="MSShapeGroup"></path>
            <g id="Small-White" transform="translate(0.000000, 271.000000)" sketch:type="MSShapeGroup">
                <g id="Group-2-Copy-6" transform="translate(26.077537, 566.483099)">
                    <path d="M660.389918,8.849759 C624.527054,2.97403591 588.051686,0 551.209991,0 C332.712094,0 131.810557,105.303721 6.62336232,279.353904 L0.00345935443,288.557683 L3.27147912,299.413683 C44.3610825,435.908787 128.314658,555.6389 241.804551,641.297108 C357.195014,728.389801 497.645816,776.275535 645.29437,776.275535 C659.85101,776.275535 674.35364,775.811241 688.787634,774.886448 L730.754232,772.197629 L705.849931,738.312515 C627.717288,632.004236 584.921323,503.726883 584.921323,368.926601 C584.921323,252.450577 616.84151,140.724102 676.290832,43.5500747 L694.137247,14.3788758 L660.389918,8.849759 L660.389918,8.849759 Z M652.9525,54.2445255 L637.051586,19.5442098 C573.211958,123.894496 538.921323,243.917969 538.921323,368.926601 C538.921323,513.610968 584.895387,651.414408 668.784126,765.554507 L687.317028,751.933511 L685.846423,728.980574 C672.391394,729.842644 658.869668,730.275535 645.29437,730.275535 C507.733856,730.275535 376.991776,685.699923 269.516394,604.581257 C163.783722,524.777928 85.5773773,413.244209 47.3189388,286.15392 L43.9670556,306.213699 C160.600812,144.055527 347.674031,46 551.209991,46 C585.557819,46 619.545908,48.7712344 652.9525,54.2445255 L652.9525,54.2445255 Z" id="Shape"></path>
                    <path d="M590.906189,159.649104 C577.704553,158.633178 564.424116,158.122674 551.084379,158.122674 C349.385604,158.122674 169.036902,275.799058 85.9214739,455.715641 L80.5115378,467.42631 L87.6835194,478.148709 C211.31627,662.984612 418.711244,776.275535 645.29437,776.275535 C659.85101,776.275535 674.35364,775.811241 688.787634,774.886448 L730.754233,772.197629 L705.849931,738.312515 C627.717289,632.004239 584.921323,503.726884 584.921323,368.926601 C584.921323,307.347676 593.829442,246.988189 611.171188,189.191233 L619.37777,161.84012 L590.906189,159.649104 L590.906189,159.649104 Z M587.376716,205.5135 L589.141452,182.581302 L567.111727,175.97137 C548.486629,238.045542 538.921323,302.857988 538.921323,368.926601 C538.921323,513.61097 584.895388,651.414412 668.784126,765.554507 L687.317028,751.933511 L685.846423,728.980574 C672.391394,729.842644 658.869668,730.275535 645.29437,730.275535 C434.230417,730.275535 241.102297,624.777979 125.918757,452.573983 L127.680802,475.007051 C203.341633,311.22713 367.487989,204.122674 551.084379,204.122674 C563.246018,204.122674 575.349099,204.58792 587.376716,205.5135 L587.376716,205.5135 Z" id="Shape"></path>
                    <path d="M563.540411,312.50903 C559.478817,312.372831 555.408527,312.304596 551.330673,312.304596 C382.580226,312.304596 237.751024,429.907144 201.639088,592.545293 L198.64916,606.011101 L209.120145,614.990307 C329.74738,718.432027 483.081633,776.275535 645.29437,776.275535 C659.85101,776.275535 674.35364,775.811241 688.787634,774.886448 L730.754234,772.197629 L705.84993,738.312514 C627.717291,632.004245 584.921323,503.726887 584.921323,368.926601 C584.921323,358.136787 585.194783,347.380582 585.739874,336.664536 L586.928696,313.293322 L563.540411,312.50903 L563.540411,312.50903 Z M561.998736,358.483188 L562.769574,335.496109 L539.799271,334.327682 C539.214593,345.821951 538.921323,357.357359 538.921323,368.926601 C538.921323,513.610973 584.89539,651.414419 668.784126,765.554507 L687.317028,751.933511 L685.846423,728.980574 C672.391394,729.842644 658.869668,730.275535 645.29437,730.275535 C494.170529,730.275535 351.430092,676.428417 239.064382,580.071219 L246.545439,602.516233 C278.007496,460.819852 404.256484,358.304596 551.330673,358.304596 C554.894494,358.304596 558.450821,358.364214 561.998736,358.483188 L561.998736,358.483188 Z" id="Shape"></path>
                    <path d="M576.546167,469.553706 C568.142285,468.497121 559.643407,467.964299 551.084379,467.964299 C439.355918,467.964299 348.782212,558.539041 348.782212,670.268515 C348.782212,679.082098 349.347181,687.831737 350.46716,696.479337 L352.096048,709.056337 L363.601414,714.391199 C451.117961,754.971282 546.721396,776.275535 645.29437,776.275535 C659.85101,776.275535 674.35364,775.811241 688.787634,774.886448 L730.754238,772.197628 L705.849929,738.312513 C651.372259,664.18951 613.812563,578.928292 596.260021,488.014029 L593.097707,471.634662 L576.546167,469.553706 L576.546167,469.553706 Z M570.807952,515.194399 L573.677059,492.374053 L551.094097,496.734077 C569.947931,594.38845 610.291051,685.968094 668.784127,765.554509 L687.317028,751.933511 L685.846423,728.980574 C672.391394,729.842644 658.869668,730.275535 645.29437,730.275535 C553.439414,730.275535 464.435532,710.441925 382.951897,672.659212 L373.276656,693.525205 L396.086152,690.571074 C395.219751,683.881408 394.782212,677.105264 394.782212,670.268515 C394.782212,583.944021 464.761135,513.964299 551.084379,513.964299 C557.723872,513.964299 564.306281,514.376971 570.807952,515.194399 L570.807952,515.194399 Z" id="Shape"></path>
                </g>
                <g id="Group-7-Copy" transform="translate(570.909920, 267.478542)">
                    <path d="M621.776405,0.258651047 C272.450835,25.3028895 0,316.771414 0,668.916347 C0,813.013559 45.6003758,950.291561 128.860409,1064.17677 L136.37399,1074.45404 L149.072311,1073.54366 C498.397881,1048.49942 770.848716,757.030897 770.848716,404.885963 C770.848716,260.788703 725.24831,123.510659 641.988226,9.62542608 L623.421047,23.1996611 L604.854458,36.7747035 L604.854537,36.7748115 L623.421126,23.1997691 L621.776405,0.258651047 L621.776405,0.258651047 Z M625.065846,46.1408871 L666.514004,43.1693394 L641.987715,9.62472665 L641.987636,9.62461866 L604.853867,36.773896 C682.400613,142.844281 724.848716,270.632454 724.848716,404.885963 C724.848716,732.860434 471.082931,1004.33965 145.782871,1027.66142 L165.994773,1037.02831 C88.4480748,930.957945 46,803.169812 46,668.916347 C46,340.941877 299.765785,69.4626619 625.065846,46.1408871 L625.065846,46.1408871 Z" id="Shape"></path>
                    <path d="M709.879851,158.155734 C696.745085,157.150173 683.53244,156.644892 670.261117,156.644892 C387.413808,156.644892 158.120867,385.940454 158.120867,668.790733 C158.120867,805.632706 212.063902,934.003681 306.473522,1029.27526 L316.856453,1039.75298 L330.710042,1034.68681 C458.134161,988.08861 568.528203,903.501415 647.076305,793.091584 C727.140337,680.550912 770.848716,545.972295 770.848716,404.885963 C770.848716,324.848226 756.808626,246.704594 729.706172,173.137699 L724.601957,159.282818 L709.879851,158.155734 L709.879851,158.155734 Z M706.368494,204.021521 L708.124172,181.088628 L686.542172,189.039556 C711.775627,257.533243 724.848716,330.294787 724.848716,404.885963 C724.848716,536.335391 684.161987,661.610313 609.593884,766.425724 C536.415063,869.288314 433.567597,948.093099 314.911385,991.484932 L339.147906,996.896488 C253.190376,910.15417 204.120867,793.380971 204.120867,668.790733 C204.120867,411.345435 412.819024,202.644892 670.261117,202.644892 C682.360406,202.644892 694.401745,203.10538 706.368494,204.021521 L706.368494,204.021521 Z" id="Shape"></path>
                    <path d="M749.921983,319.665913 C724.054982,313.809265 697.466868,310.826814 670.507412,310.826814 C472.675429,310.826814 312.301026,471.203049 312.301026,669.03703 C312.301026,783.062834 365.968763,888.214494 455.360531,955.4621 L468.645846,965.456372 L482.302806,955.976261 C661.649725,831.48086 770.848716,627.36752 770.848716,404.885963 C770.848716,383.082086 769.807068,361.401767 767.737238,339.894785 L766.14389,323.338778 L749.921983,319.665913 L749.921983,319.665913 Z M739.764054,364.530336 L744.843019,342.098124 L721.948799,344.301462 C723.877724,364.344339 724.848716,384.55408 724.848716,404.885963 C724.848716,612.131468 623.163701,802.199781 456.071858,918.188202 L483.014133,918.702363 C405.053634,860.054267 358.301026,768.451479 358.301026,669.03703 C358.301026,496.60803 498.080645,356.826814 670.507412,356.826814 C694.043408,356.826814 717.224701,359.427113 739.764054,364.530336 L739.764054,364.530336 Z" id="Shape"></path>
                    <path d="M749.353265,482.538187 C724.547532,471.992429 697.769021,466.486517 670.261117,466.486517 C558.532657,466.486517 467.958951,557.061259 467.958951,668.790733 C467.958951,745.971084 511.578313,815.373837 579.257558,849.513982 L595.249347,857.580886 L606.988118,844.052638 C689.461666,749.006692 743.872677,632.656833 763.089522,507.186818 L765.794163,489.527771 L749.353265,482.538187 L749.353265,482.538187 Z M731.355994,524.871369 L717.619737,500.222728 C699.727882,617.041648 649.067886,725.37052 572.24459,813.904881 L599.975149,808.443537 C547.654253,782.050764 513.958951,728.438179 513.958951,668.790733 C513.958951,582.466239 583.937873,512.486517 670.261117,512.486517 C691.556162,512.486517 712.216294,516.734433 731.355994,524.871369 L731.355994,524.871369 Z" id="Shape"></path>
                </g>
                <g id="Group-5">
                    <path d="M1208.63371,270.686583 C1082.91586,101.658332 885.092582,0 670.38673,0 C300.142304,0 0,300.145734 0,670.394129 C0,737.357476 9.82621736,803.02808 28.9494081,865.860948 L50.9528933,859.164185 L72.9563785,852.467421 C72.7737819,851.867466 72.5920885,851.267206 72.4112991,850.666643 L50.3875693,857.296524 L69.0594159,870.726422 C128.584248,787.967894 207.593175,720.72152 298.880341,675.369369 L298.985738,675.31667 C385.188314,631.938518 480.560453,609.034941 579.257882,609.034941 C615.523969,609.034941 651.387376,612.124362 686.586102,618.22074 L702.081639,620.904549 L710.205092,607.438888 C813.043284,436.971435 991.481188,324.228749 1192.10889,307.331728 L1233.30843,303.861871 L1208.63371,270.686583 L1208.63371,270.686583 Z M1171.72359,298.139153 L1188.2484,261.494008 C972.794295,279.63972 781.20884,400.689442 670.817383,583.677398 L694.436373,572.895546 C656.647778,566.350605 618.158036,563.034941 579.257882,563.034941 C473.338221,563.034941 370.889836,587.637876 278.3084,634.225945 L278.413797,634.173246 C180.403667,682.865416 95.6060227,755.038704 31.7157226,843.866627 L25.0958197,853.070407 L28.3638394,863.926406 C28.5580581,864.571579 28.753248,865.216427 28.9494081,865.860948 L72.9563785,852.467421 C55.1509835,793.964421 46,732.806542 46,670.394129 C46,325.550715 325.54752,46 670.38673,46 C870.39191,46 1054.59492,140.659086 1171.72359,298.139153 L1171.72359,298.139153 Z" id="Shape"></path>
                    <path d="M708.1534,607.127159 C812.933697,437.095187 993.134137,325.908121 1194.79217,311.450629 L1236.24033,308.479081 L1211.71404,274.934468 L1211.71396,274.93436 L1174.58019,302.083638 C1186.01527,317.724834 1196.71879,333.88809 1206.65211,350.520979 L1246.6328,327.79277 C1149.77991,148.582195 962.449986,34.4815799 755.010862,34.4815799 C446.577387,34.4815799 196.542759,284.519065 196.542759,592.955803 C196.542759,626.701893 199.538421,660.077649 205.447738,692.807948 L211.544525,726.576593 L240.462992,708.104602 C259.264783,696.09475 278.697903,685.099155 298.681916,675.170947 L298.787314,675.118247 C384.989866,631.740099 480.362021,608.836517 579.05946,608.836517 C614.74882,608.836517 650.048681,611.828457 684.709623,617.734043 L700.0105,620.341031 L708.1534,607.127159 L708.1534,607.127159 Z M668.992056,582.99442 L692.435833,572.387536 C655.225122,566.047516 617.340728,562.836517 579.05946,562.836517 C473.139788,562.836517 370.691386,587.439457 278.109974,634.027523 L278.215372,633.974824 C256.754979,644.636509 235.887974,656.44342 215.700604,669.338326 L250.715857,684.63498 C245.292927,654.598663 242.542759,623.958045 242.542759,592.955803 C242.542759,309.924046 471.982603,80.4815799 755.010862,80.4815799 C945.383772,80.4815799 1117.26779,185.174259 1206.16463,349.663462 L1226.39872,338.728116 L1246.14532,326.935252 C1235.48064,309.077739 1223.98989,291.725693 1211.71455,274.935168 L1193.14737,288.509403 L1174.58078,302.084445 L1174.58086,302.084553 L1193.14745,288.509511 L1191.50273,265.568393 C974.950095,281.093725 781.466541,400.476723 668.992056,582.99442 L668.992056,582.99442 Z" id="Shape"></path>
                    <path d="M412.054061,613.090361 C411.685537,606.553597 411.50057,599.988612 411.50057,593.400243 C411.50057,403.436917 565.494406,249.441322 755.455297,249.441322 C845.708494,249.441322 930.411935,284.323047 994.101367,345.701482 L1001.88032,307.644597 C863.765472,360.211028 746.611542,457.496078 669.166869,583.169236 L692.610646,572.562352 C655.399935,566.222332 617.515541,563.011333 579.234273,563.011333 C511.763368,563.011333 445.606226,572.987451 382.34435,592.396593 L389.090525,614.384979 L412.054061,613.090361 L412.054061,613.090361 Z M366.12699,615.679598 L367.778956,644.981658 L395.836701,636.373365 C454.738813,618.301826 516.349197,609.011333 579.234273,609.011333 C614.923634,609.011333 650.223494,612.003273 684.884436,617.908859 L700.185313,620.515846 L708.328213,607.301975 C780.473644,490.228151 889.62613,399.587529 1018.24285,350.636078 L1052.12896,337.739044 L1026.0218,312.579193 C953.843404,243.01982 857.734768,203.441322 755.455297,203.441322 C540.089189,203.441322 365.50057,378.031936 365.50057,593.400243 C365.50057,600.852335 365.709863,608.280741 366.12699,615.679598 L366.12699,615.679598 Z" id="Shape"></path>
                    <path d="M708.247157,607.336826 C748.451468,542.095378 800.405161,484.677246 861.293821,438.117586 L889.714705,416.385022 L858.14427,399.551763 C826.687679,382.779204 791.512352,373.878845 755.104619,373.878845 C636.828717,373.878845 539.968725,467.681207 535.949501,585.572183 L535.113367,610.097471 L559.641365,609.345046 C566.13207,609.145937 572.636599,609.046183 579.153217,609.046183 C614.842578,609.046183 650.142438,612.038123 684.80338,617.943709 L700.104257,620.550697 L708.247157,607.336826 L708.247157,607.336826 Z M669.085813,583.204086 L692.52959,572.597203 C655.318879,566.257183 617.434485,563.046183 579.153217,563.046183 C572.166347,563.046183 565.191616,563.153148 558.230927,563.366675 L558.936146,586.355861 L581.922791,587.139538 C585.097871,494.008796 661.6442,419.878845 755.104619,419.878845 C783.917164,419.878845 811.666065,426.900107 836.501521,440.142296 L833.35197,401.576473 C768.000887,451.548409 712.243019,513.170835 669.085813,583.204086 L669.085813,583.204086 Z" id="Shape"></path>
                </g>
            </g>
        </g>
    </g>
</svg>