<?xml version="1.0" encoding="iso-8859-1"?>
<!-- Generator: Adobe Illustrator 16.0.0, SVG Export Plug-In . SVG Version: 6.00 Build 0)  -->
<!DOCTYPE svg PUBLIC "-//W3C//DTD SVG 1.1//EN" "http://www.w3.org/Graphics/SVG/1.1/DTD/svg11.dtd">
<svg version="1.1" id="Capa_1" xmlns="http://www.w3.org/2000/svg" xmlns:xlink="http://www.w3.org/1999/xlink" x="0px" y="0px"
	 width="190.275px" height="190.275px" viewBox="0 0 190.275 190.275" style="enable-background:new 0 0 190.275 190.275;"
	 xml:space="preserve">
<g>
	<g>
		<path d="M190.275,56.447c0-10.146-8.25-18.397-18.397-18.397c-10.146,0-18.397,8.251-18.397,18.397
			c0,2.525,0.517,4.933,1.441,7.127c-0.318-0.034-0.637-0.101-0.959-0.101c-0.007,0-0.021,0-0.03,0l-36.792-3.504
			c-0.308-0.029-0.63-0.014-0.941,0.038l-19.53,3.457c-5.404,0.178-9.738,4.628-9.738,10.071c0,5.554,4.521,10.075,10.078,10.075
			c0.234,0,0.469-0.025,0.7-0.075l19.226-3.93l12.891,1.8c-18.294,16.432-18.605,16.791-18.777,16.989
			c-1.464,1.69-2.326,3.799-2.457,5.985c-1.04,2.338-7.107,12.307-12.858,21.378l-24.47,8.528c-0.248,0.082-0.484,0.198-0.708,0.339
			c-2.967,1.861-4.741,5.048-4.741,8.531c0,5.551,4.521,10.075,10.078,10.075c0.648,0,2.363,0,29.854-9.421
			c0.681-0.229,1.272-0.668,1.697-1.249l15.276-20.944c5.342,4.593,11.636,10.021,14.236,12.266v21.389
			c0,5.557,4.521,10.074,10.075,10.074c5.558,0,10.078-4.518,10.078-10.074v-24.962c0-2.255-1.399-4.962-1.831-5.735
			c-0.164-0.301-0.373-0.575-0.623-0.811l-17.966-17.484l6.957-6.991l0.931,8.6c0.141,1.29,0.979,2.396,2.18,2.875
			c21.752,8.727,22.214,8.727,23.062,8.727c4.746,0,8.613-3.867,8.613-8.617c0-2.971-1.513-5.694-4.161-7.354l-13.292-7.645
			l-1.099-11.622c0.448-1.093,0.948-2.158,1.105-2.392c2.361-2.59,2.693-5.53,2.693-8.323c0-0.257-0.059-0.498-0.072-0.748
			c2.499,1.273,5.284,2.058,8.275,2.058C182.025,74.844,190.275,66.59,190.275,56.447z M170.66,109.511
			c0.476,0.297,0.76,0.804,0.76,1.352c0,0.753-0.523,1.39-1.229,1.561c-2.238-0.787-10.753-4.141-18.877-7.393l-1.499-13.798
			c-0.147-1.341-1.047-2.481-2.323-2.929c-1.263-0.445-2.693-0.123-3.645,0.833l-14.634,14.703c-0.657,0.664-1.026,1.563-1.02,2.498
			c0.007,0.941,0.39,1.831,1.061,2.484l20.105,19.568c0.373,0.76,0.701,1.622,0.735,1.916v24.962c0,1.693-1.375,3.065-3.069,3.065
			c-1.687,0-3.066-1.375-3.066-3.065v-22.994c0-1.02-0.441-1.988-1.215-2.652c0,0-11.18-9.646-18.343-15.796
			c-0.637-0.545-1.451-0.843-2.279-0.843c-0.137,0-0.273,0.008-0.403,0.024c-0.972,0.113-1.852,0.626-2.43,1.417l-16.857,23.116
			c-12.043,4.114-25.124,8.415-26.536,8.686c-1.694,0-3.071-1.379-3.071-3.066c0-0.947,0.438-1.823,1.189-2.405l25.182-8.774
			c0.743-0.261,1.381-0.764,1.804-1.427c14.587-22.926,14.587-24.459,14.587-25.584c0-0.907,0.418-1.578,0.616-1.821
			c0.873-0.849,14.78-13.356,23.921-21.556c1.013-0.912,1.41-2.327,1.013-3.631c-0.4-1.304-1.52-2.26-2.867-2.445l-20.951-2.928
			c-0.396-0.055-0.797-0.041-1.184,0.039l-19.405,3.966c-1.556-0.147-2.779-1.461-2.779-3.054c0-1.694,1.378-3.066,3.07-3.066
			c0.207,0,0.409-0.019,0.609-0.053l19.334-3.424l36.647,3.477c1.688,0,3.066,1.376,3.066,3.066c0,2.231-0.301,2.984-0.855,3.588
			c-1.037,1.131-2.084,3.546-2.775,5.375c-0.191,0.501-0.26,1.037-0.212,1.574l1.345,14.26c0.106,1.137,0.757,2.149,1.745,2.711
			L170.66,109.511z M160.489,56.447c0-6.281,5.109-11.389,11.389-11.389c6.28,0,11.39,5.107,11.39,11.389
			c0,6.28-5.109,11.389-11.39,11.389C165.599,67.836,160.489,62.727,160.489,56.447z"/>
		<path d="M85.277,106.411l-10.663,10.663c-1.371,1.372-1.371,3.583,0,4.955c0.683,0.682,1.581,1.027,2.478,1.027
			c0.896,0,1.793-0.346,2.478-1.027l16.646-16.645c0.322-0.325,0.582-0.712,0.756-1.141c0.354-0.858,0.354-1.82,0-2.679
			c-0.178-0.428-0.435-0.818-0.756-1.14l-15.77-15.77c-1.371-1.371-3.584-1.371-4.955,0s-1.371,3.585,0,4.955l9.787,9.787H65.264
			V28.437c0-1.935-1.571-3.504-3.504-3.504H3.504C1.569,24.932,0,26.501,0,28.437v133.403c0,1.934,1.569,3.504,3.504,3.504h58.259
			c1.934,0,3.504-1.57,3.504-3.504v-55.429H85.277z M58.259,158.334H7.009V31.944h51.25v67.458H44.68
			c-1.935,0-3.504,1.57-3.504,3.504s1.569,3.505,3.504,3.505h13.579V158.334z"/>
	</g>
</g>
<g>
</g>
<g>
</g>
<g>
</g>
<g>
</g>
<g>
</g>
<g>
</g>
<g>
</g>
<g>
</g>
<g>
</g>
<g>
</g>
<g>
</g>
<g>
</g>
<g>
</g>
<g>
</g>
<g>
</g>
</svg>
