<?xml version="1.0" encoding="iso-8859-1"?>
<!-- Generator: Adobe Illustrator 16.0.0, SVG Export Plug-In . SVG Version: 6.00 Build 0)  -->
<!DOCTYPE svg PUBLIC "-//W3C//DTD SVG 1.1//EN" "http://www.w3.org/Graphics/SVG/1.1/DTD/svg11.dtd">
<svg version="1.1" id="Capa_1" xmlns="http://www.w3.org/2000/svg" xmlns:xlink="http://www.w3.org/1999/xlink" x="0px" y="0px"
	 width="611.975px" height="611.975px" viewBox="0 0 611.975 611.975" style="enable-background:new 0 0 611.975 611.975;"
	 xml:space="preserve">
<g>
	<g id="interface_-_arrow_top">
		<g>
			<path d="M604.925,443.139l-275.4-300.8c-1.2-3-3-5.7-5.3-8.1c-5-5-11.7-7.2-18.3-6.9c-6.6-0.3-13.2,1.9-18.2,7
				c-2.3,2.3-4.1,5.1-5.3,8l-275.3,300.7c-9.5,9.5-9.5,24.9,0,34.5c9.5,9.5,24.9,9.5,34.4,0l264.5-288.899l264.5,288.899
				c9.5,9.5,24.9,9.5,34.4,0C614.324,468.038,614.324,452.639,604.925,443.139z"/>
		</g>
	</g>
</g>
<g>
</g>
<g>
</g>
<g>
</g>
<g>
</g>
<g>
</g>
<g>
</g>
<g>
</g>
<g>
</g>
<g>
</g>
<g>
</g>
<g>
</g>
<g>
</g>
<g>
</g>
<g>
</g>
<g>
</g>
</svg>
