<?xml version="1.0" encoding="iso-8859-1"?>
<!-- Generator: Adobe Illustrator 16.0.0, SVG Export Plug-In . SVG Version: 6.00 Build 0)  -->
<!DOCTYPE svg PUBLIC "-//W3C//DTD SVG 1.1//EN" "http://www.w3.org/Graphics/SVG/1.1/DTD/svg11.dtd">
<svg version="1.1" id="Capa_1" xmlns="http://www.w3.org/2000/svg" xmlns:xlink="http://www.w3.org/1999/xlink" x="0px" y="0px"
	 width="791.983px" height="791.983px" viewBox="0 0 791.983 791.983" style="enable-background:new 0 0 791.983 791.983;"
	 xml:space="preserve">
<g>
	<g id="interface_-_arrow_right">
		<g>
			<path d="M618.221,372.386c-3.096-3.096-6.652-5.4-10.473-6.916L218.599,9.188c-12.317-12.251-32.275-12.251-44.593,0
				c-12.317,12.317-12.317,32.21,0,44.461l373.869,342.317L174.006,738.219c-12.317,12.317-12.317,32.209,0,44.526
				s32.275,12.317,44.593,0L607.88,426.332c3.754-1.515,7.245-3.755,10.275-6.851c6.521-6.455,9.354-15.018,9.023-23.448
				C627.575,387.536,624.743,378.907,618.221,372.386z"/>
		</g>
	</g>
</g>
<g>
</g>
<g>
</g>
<g>
</g>
<g>
</g>
<g>
</g>
<g>
</g>
<g>
</g>
<g>
</g>
<g>
</g>
<g>
</g>
<g>
</g>
<g>
</g>
<g>
</g>
<g>
</g>
<g>
</g>
</svg>
