<?xml version="1.0" encoding="iso-8859-1"?>
<!-- Generator: Adobe Illustrator 16.0.0, SVG Export Plug-In . SVG Version: 6.00 Build 0)  -->
<!DOCTYPE svg PUBLIC "-//W3C//DTD SVG 1.1//EN" "http://www.w3.org/Graphics/SVG/1.1/DTD/svg11.dtd">
<svg version="1.1" id="Capa_1" xmlns="http://www.w3.org/2000/svg" xmlns:xlink="http://www.w3.org/1999/xlink" x="0px" y="0px"
	 width="611.949px" height="611.949px" viewBox="0 0 611.949 611.949" style="enable-background:new 0 0 611.949 611.949;"
	 xml:space="preserve">
<g>
	<g id="interface_-_arrow_bottom">
		<g>
			<path d="M604.925,134.423c-9.5-9.5-24.9-9.5-34.4,0l-264.6,289.001l-264.4-288.901c-9.5-9.5-24.9-9.5-34.4,0s-9.5,24.9,0,34.5
				l275.4,300.8c1.2,2.9,2.9,5.601,5.2,7.9c5,5,11.6,7.2,18.1,6.899c6.6,0.301,13.299-1.899,18.299-6.899
				c2.4-2.4,4.2-5.101,5.301-8.101l275.3-300.8C614.324,159.423,614.324,144.023,604.925,134.423z"/>
		</g>
	</g>
</g>
<g>
</g>
<g>
</g>
<g>
</g>
<g>
</g>
<g>
</g>
<g>
</g>
<g>
</g>
<g>
</g>
<g>
</g>
<g>
</g>
<g>
</g>
<g>
</g>
<g>
</g>
<g>
</g>
<g>
</g>
</svg>
