<?xml version="1.0" encoding="iso-8859-1"?>
<!-- Generator: Adobe Illustrator 19.1.0, SVG Export Plug-In . SVG Version: 6.00 Build 0)  -->
<svg version="1.1" id="Capa_1" xmlns="http://www.w3.org/2000/svg" xmlns:xlink="http://www.w3.org/1999/xlink" x="0px" y="0px"
	 viewBox="0 0 64 64" style="enable-background:new 0 0 64 64;" xml:space="preserve">
<g>
	<g>
		<g>
			<g>
				<path style="stroke:#333333;stroke-width:4;stroke-miterlimit:10;" d="M21,45.815"/>
			</g>
		</g>
		<g>
			<g>
				<polygon points="19,61.185 19,47.815 0,47.815 0,2.815 64,2.815 64,47.815 46.667,47.815 46.667,43.815 60,43.815 60,6.815 
					4,6.815 4,43.815 23,43.815 23,54.446 42.042,44.06 43.958,47.571 				"/>
			</g>
		</g>
		<g>
			<g>
				<rect x="11" y="14.815" width="42" height="4"/>
			</g>
		</g>
		<g>
			<g>
				<rect x="46" y="23.815" width="7" height="4"/>
			</g>
		</g>
		<g>
			<g>
				<rect x="34" y="23.815" width="10" height="4"/>
			</g>
		</g>
		<g>
			<g>
				<rect x="22" y="23.815" width="10" height="4"/>
			</g>
		</g>
		<g>
			<g>
				<rect x="11" y="23.815" width="9" height="4"/>
			</g>
		</g>
		<g>
			<g>
				<rect x="26" y="32.815" width="18" height="4"/>
			</g>
		</g>
		<g>
			<g>
				<rect x="11" y="32.815" width="13" height="4"/>
			</g>
		</g>
	</g>
	<g>
	</g>
	<g>
	</g>
	<g>
	</g>
	<g>
	</g>
	<g>
	</g>
	<g>
	</g>
	<g>
	</g>
	<g>
	</g>
	<g>
	</g>
	<g>
	</g>
	<g>
	</g>
	<g>
	</g>
	<g>
	</g>
	<g>
	</g>
	<g>
	</g>
</g>
<g>
</g>
<g>
</g>
<g>
</g>
<g>
</g>
<g>
</g>
<g>
</g>
<g>
</g>
<g>
</g>
<g>
</g>
<g>
</g>
<g>
</g>
<g>
</g>
<g>
</g>
<g>
</g>
<g>
</g>
</svg>
