<?xml version="1.0" encoding="iso-8859-1"?>
<!-- Generator: Adobe Illustrator 19.1.0, SVG Export Plug-In . SVG Version: 6.00 Build 0)  -->
<svg version="1.1" id="Capa_1" xmlns="http://www.w3.org/2000/svg" xmlns:xlink="http://www.w3.org/1999/xlink" x="0px" y="0px"
	 viewBox="0 0 44.01 44.01" style="enable-background:new 0 0 44.01 44.01;" xml:space="preserve">
<g id="link">
	<g>
		<path d="M29.227,25.105L44.01,10.321L33.689,0L18.905,14.784l4.457,4.457l-4.122,4.122l-4.457-4.457L0,33.689L10.321,44.01
			l14.783-14.783l-4.457-4.457l4.122-4.122L29.227,25.105z M22.291,29.227L10.321,41.196l-7.507-7.507l11.969-11.969l3.05,3.05
			l-6.481,6.481l1.407,1.407l6.481-6.481L22.291,29.227z M21.719,14.784L33.689,2.814l7.508,7.507l-11.969,11.97l-3.05-3.05
			l6.481-6.481l-1.407-1.407l-6.481,6.481L21.719,14.784z"/>
	</g>
</g>
<g>
</g>
<g>
</g>
<g>
</g>
<g>
</g>
<g>
</g>
<g>
</g>
<g>
</g>
<g>
</g>
<g>
</g>
<g>
</g>
<g>
</g>
<g>
</g>
<g>
</g>
<g>
</g>
<g>
</g>
</svg>
