<?xml version="1.0" encoding="iso-8859-1"?>
<!-- Generator: Adobe Illustrator 18.0.0, SVG Export Plug-In . SVG Version: 6.00 Build 0)  -->
<!DOCTYPE svg PUBLIC "-//W3C//DTD SVG 1.1//EN" "http://www.w3.org/Graphics/SVG/1.1/DTD/svg11.dtd">
<svg version="1.1" id="Capa_1" xmlns="http://www.w3.org/2000/svg" xmlns:xlink="http://www.w3.org/1999/xlink" x="0px" y="0px"
	 viewBox="0 0 325 325" style="enable-background:new 0 0 325 325;" xml:space="preserve">
<path d="M289.322,122.347c15.658-15.657,13.907-42.885-3.902-60.695c-6.677-6.677-14.655-11.123-22.849-13.273V6
	c0-3.313-2.686-6-6-6H30.989c-3.314,0-6,2.687-6,6v313c0,3.314,2.686,6,6,6h189.486c0.213,0,0.423-0.012,0.63-0.033
	c0.029-0.004,0.059-0.01,0.088-0.014c0.179-0.021,0.356-0.048,0.53-0.085c0.032-0.007,0.063-0.017,0.095-0.024
	c0.17-0.039,0.338-0.083,0.502-0.136c0.041-0.013,0.08-0.03,0.121-0.044c0.151-0.053,0.302-0.109,0.448-0.174
	c0.052-0.022,0.102-0.049,0.152-0.073c0.131-0.061,0.26-0.126,0.385-0.197c0.062-0.034,0.12-0.071,0.18-0.108
	c0.11-0.068,0.221-0.139,0.327-0.213c0.064-0.046,0.127-0.094,0.189-0.143c0.097-0.074,0.191-0.15,0.283-0.23
	c0.063-0.055,0.126-0.111,0.186-0.169c0.087-0.083,0.172-0.167,0.254-0.255c0.033-0.035,0.07-0.066,0.102-0.104l36.096-40.387
	c0.015-0.017,0.025-0.036,0.039-0.053c0.212-0.242,0.402-0.5,0.573-0.773c0.024-0.039,0.048-0.078,0.071-0.117
	c0.165-0.277,0.308-0.567,0.427-0.871c0.014-0.035,0.026-0.072,0.04-0.108c0.113-0.308,0.205-0.624,0.268-0.953
	c0.006-0.03,0.009-0.062,0.014-0.093c0.059-0.335,0.095-0.678,0.095-1.029V149.088l26.538-26.567
	C289.178,122.458,289.256,122.413,289.322,122.347z M284.547,109.041l-46.727-46.77c4.845-2.807,10.61-3.874,16.525-3.27
	c0.689,0.275,1.439,0.432,2.226,0.432c0.19,0,0.377-0.012,0.561-0.028c6.988,1.324,14.011,4.94,19.802,10.731
	C288.314,81.518,291.14,97.764,284.547,109.041z M226.475,303.283v-18.67h16.687L226.475,303.283z M250.571,272.613h-30.096
	c-3.313,0-6,2.686-6,6V313H36.989V12h213.582v34.892c-9.346,0.127-18.272,3.333-25.149,9.726c-0.344,0.225-0.667,0.484-0.962,0.779
	L79.856,202.158c-0.263,0.263-0.49,0.552-0.698,0.855c-0.073,0.105-0.131,0.218-0.196,0.328c-0.121,0.203-0.233,0.408-0.329,0.624
	c-0.059,0.132-0.109,0.265-0.158,0.4c-0.076,0.209-0.138,0.421-0.189,0.637c-0.033,0.138-0.066,0.273-0.089,0.411
	c-0.012,0.066-0.034,0.13-0.043,0.197L69.62,270.1c-0.244,1.842,0.38,3.693,1.688,5.013c1.134,1.143,2.67,1.774,4.26,1.774
	c0.245,0,0.492-0.015,0.739-0.046l64.908-8.06c0.074-0.009,0.145-0.034,0.219-0.046c0.146-0.023,0.289-0.057,0.434-0.091
	c0.21-0.05,0.416-0.11,0.618-0.183c0.142-0.051,0.28-0.103,0.418-0.164c0.211-0.093,0.411-0.203,0.61-0.32
	c0.115-0.068,0.232-0.129,0.345-0.205c0.295-0.202,0.576-0.426,0.833-0.681c0.008-0.007,0.017-0.012,0.024-0.02
	c0.001-0.001,0.001-0.002,0.002-0.003c0.001,0,0.002-0.001,0.003-0.002l105.85-105.965V272.613z M88.454,219.244l39.104,39.141
	l-45.022,5.591L88.454,219.244z M140.475,254.336l-47.894-47.938L228.705,70.126l47.894,47.938L140.475,254.336z"/>
<g>
</g>
<g>
</g>
<g>
</g>
<g>
</g>
<g>
</g>
<g>
</g>
<g>
</g>
<g>
</g>
<g>
</g>
<g>
</g>
<g>
</g>
<g>
</g>
<g>
</g>
<g>
</g>
<g>
</g>
</svg>
