<?xml version="1.0" encoding="iso-8859-1"?>
<!-- Generator: Adobe Illustrator 19.0.0, SVG Export Plug-In . SVG Version: 6.00 Build 0)  -->
<svg version="1.1" id="Capa_1" xmlns="http://www.w3.org/2000/svg" xmlns:xlink="http://www.w3.org/1999/xlink" x="0px" y="0px"
	 viewBox="0 0 434.168 434.168" style="enable-background:new 0 0 434.168 434.168;" xml:space="preserve">
<g>
	<path d="M392.627,17.483v212.713c0,9.616-7.867,17.483-17.483,17.483s-17.483-7.867-17.483-17.483V34.967H66.272v364.235h134.038
		c9.616,0,17.483,7.867,17.483,17.483s-7.867,17.483-17.483,17.483H48.789c-9.616,0-17.483-7.867-17.483-17.483V17.483
		C31.306,7.867,39.173,0,48.789,0h326.354C384.759,0,392.627,7.867,392.627,17.483z M136.205,136.952h157.349
		c9.616,0,17.483-7.867,17.483-17.483s-7.867-17.483-17.483-17.483H136.205c-9.616,0-17.483,7.867-17.483,17.483
		S126.59,136.952,136.205,136.952z M311.038,215.627c0-9.616-7.867-17.483-17.483-17.483H136.205
		c-9.616,0-17.483,7.867-17.483,17.483c0,9.616,7.867,17.483,17.483,17.483h157.349C303.171,233.11,311.038,225.243,311.038,215.627
		z M136.205,291.388c-9.616,0-17.483,7.867-17.483,17.483c0,9.616,7.867,17.483,17.483,17.483h46.622
		c9.616,0,17.483-7.867,17.483-17.483c0-9.616-7.867-17.483-17.483-17.483H136.205z M397.58,292.262
		c-6.702-6.702-17.775-6.702-24.768,0l-41.377,41.377l-41.668-41.668c-6.702-6.702-17.775-6.702-24.768,0
		c-6.702,6.702-6.702,17.775,0,24.768l41.668,41.668l-41.668,41.668c-6.702,6.702-6.702,17.775,0,24.768
		c3.497,3.497,7.867,5.245,12.238,5.245s9.033-1.748,12.238-5.245l41.668-41.668l41.668,41.668
		c3.497,3.497,7.867,5.245,12.238,5.245s9.033-1.748,12.238-5.245c6.702-6.702,6.702-17.775,0-24.768l-41.086-41.668l41.668-41.668
		C404.574,310.037,404.574,298.964,397.58,292.262z"/>
</g>
<g>
</g>
<g>
</g>
<g>
</g>
<g>
</g>
<g>
</g>
<g>
</g>
<g>
</g>
<g>
</g>
<g>
</g>
<g>
</g>
<g>
</g>
<g>
</g>
<g>
</g>
<g>
</g>
<g>
</g>
</svg>
