<?xml version="1.0" encoding="iso-8859-1"?>
<!-- Generator: Adobe Illustrator 16.0.0, SVG Export Plug-In . SVG Version: 6.00 Build 0)  -->
<!DOCTYPE svg PUBLIC "-//W3C//DTD SVG 1.1//EN" "http://www.w3.org/Graphics/SVG/1.1/DTD/svg11.dtd">
<svg version="1.1" id="Capa_1" xmlns="http://www.w3.org/2000/svg" xmlns:xlink="http://www.w3.org/1999/xlink" x="0px" y="0px"
	 width="612px" height="612px" viewBox="0 0 612 612" style="enable-background:new 0 0 612 612;" xml:space="preserve">
<g>
	<g>
		<path d="M587.579,186.87c-32.272-75.225-87.067-130.02-162.292-162.285C387.418,8.338,347.992,0.157,306.504,0.157
			c-41.489,0-81.215,8.259-119.12,24.428C111.524,56.936,56.415,111.524,24.092,186.87C7.895,224.618,0,264.165,0,305.653
			c0,41.496,7.895,81.371,24.092,119.127c32.323,75.346,87.432,130.24,163.292,162.649c37.905,16.133,77.63,24.413,119.12,24.413
			c41.488,0,80.914-8.209,118.783-24.413c75.225-32.338,130.02-87.446,162.292-162.649C603.826,386.903,612,347.149,612,305.653
			C612,264.165,603.826,224.747,587.579,186.87z M553.443,410.389c-14.191,33.065-33.122,61.897-57.215,86.025
			c-23.757,23.7-52.531,42.831-85.661,57.18c-33.13,14.419-67.594,21.415-104.063,21.415c-48.521,0-93.735-11.993-135.181-36.121
			c-41.203-24.057-74.026-56.821-98.04-98.046c-24.164-41.453-36.142-86.668-36.142-135.188c0-48.52,12.05-93.356,36.142-134.509
			c24.092-41.16,56.836-74.025,98.04-98.039c41.446-24.171,86.661-36.142,135.181-36.142c48.52,0,93.355,12.05,134.516,36.142
			c41.153,24.092,73.819,56.95,97.704,98.039c23.971,41.232,36.135,85.99,36.135,134.509
			C574.858,342.131,567.691,377.202,553.443,410.389z"/>
		<path d="M457.081,277.55c-7.809-4.497-41.566-24.307-101.387-58.892l-100.724-58.221c-11.536-6.667-22.572-6.046-33.458,0
			c-10.201,5.668-17.396,17.061-17.396,28.775v136.858v96.697c0,12.721,5.689,22.415,16.725,28.775
			c6.368,3.677,13.371,4.805,21.08,4.354c3.676-0.214,7.895-1.549,12.385-4.354c6.225-3.891,40.532-23.007,102.386-58.885
			l100.389-58.229c5.061-2.934,8.544-6.781,11.707-11.707c2.862-4.454,4.683-10.036,4.683-17.068c0-8.03-2.491-14.59-6.688-19.737
			C463.613,282.025,460.322,279.413,457.081,277.55z M419.604,313.349l-16.062,9.373c-69.264,40.403-123.474,71.271-161.621,94.027
			V286.58V195.9l71.277,41.16c39.854,23.021,68.279,39.104,84.99,48.855l20.073,11.707l14.056,8.03L419.604,313.349z"/>
	</g>
</g>
<g>
</g>
<g>
</g>
<g>
</g>
<g>
</g>
<g>
</g>
<g>
</g>
<g>
</g>
<g>
</g>
<g>
</g>
<g>
</g>
<g>
</g>
<g>
</g>
<g>
</g>
<g>
</g>
<g>
</g>
</svg>
