<?xml version="1.0" encoding="iso-8859-1"?>
<!-- Generator: Adobe Illustrator 18.1.1, SVG Export Plug-In . SVG Version: 6.00 Build 0)  -->
<svg version="1.1" id="Capa_1" xmlns="http://www.w3.org/2000/svg" xmlns:xlink="http://www.w3.org/1999/xlink" x="0px" y="0px"
	 viewBox="0 0 31.332 31.332" style="enable-background:new 0 0 31.332 31.332;" xml:space="preserve">
<g>
	<g id="c53_book">
		<path d="M31.18,8.628c-0.043-0.067-0.723-1.253-2.088-2.471c-1.352-1.211-3.455-2.471-6.223-2.471s-4.85,1.264-6.181,2.482
			c-0.41,0.376-0.754,0.747-1.039,1.086c-0.291-0.341-0.651-0.716-1.072-1.097c-1.358-1.211-3.459-2.471-6.229-2.471
			C5.58,3.686,3.5,4.95,2.169,6.168c-1.337,1.221-1.988,2.411-2.027,2.48L0,9.196v17.882l2.143,0.547l0.003,0.004
			c0.029-0.062,0.61-1.054,1.664-1.98c1.065-0.934,2.548-1.795,4.538-1.799c2.049,0,3.609,0.923,4.706,1.898
			c0.54,0.484,0.964,0.971,1.234,1.334c0.14,0.183,0.238,0.333,0.304,0.428c0.03,0.051,0.055,0.09,0.068,0.115
			c0.005,0.01,0.012,0.018,0.012,0.021l0,0l0,0h0.005l1.989-0.018l0,0l0.002-0.004V27.62c0.045-0.082,0.623-1.058,1.66-1.973
			c1.07-0.934,2.555-1.795,4.541-1.799c2.049,0,3.605,0.923,4.707,1.898c0.545,0.484,0.957,0.971,1.23,1.334
			c0.141,0.183,0.24,0.333,0.307,0.428c0.033,0.051,0.053,0.09,0.068,0.115c0.008,0.01,0.012,0.018,0.012,0.021h0.002l0,0
			l2.137-0.568V9.196L31.18,8.628z M8.348,21.566H8.346c-2.689,0-4.727,1.193-6.057,2.376V9.518C2.524,9.159,3.037,8.449,3.81,7.765
			c1.065-0.932,2.548-1.793,4.538-1.793c2.049,0,3.609,0.924,4.706,1.895c0.54,0.483,0.964,0.976,1.234,1.339
			c0.097,0.124,0.175,0.237,0.23,0.323v14.467C13.168,22.798,11.083,21.566,8.348,21.566z M29.043,23.996
			c-1.359-1.2-3.439-2.43-6.174-2.43c-2.688-0.004-4.727,1.193-6.062,2.376V9.518c0.236-0.356,0.75-1.069,1.521-1.753
			c1.07-0.932,2.555-1.793,4.541-1.793c2.049,0,3.605,0.924,4.707,1.895c0.545,0.483,0.957,0.976,1.23,1.339
			c0.098,0.124,0.176,0.237,0.236,0.323L29.043,23.996L29.043,23.996z"/>
	</g>
	<g id="Capa_1_50_">
	</g>
</g>
<g>
</g>
<g>
</g>
<g>
</g>
<g>
</g>
<g>
</g>
<g>
</g>
<g>
</g>
<g>
</g>
<g>
</g>
<g>
</g>
<g>
</g>
<g>
</g>
<g>
</g>
<g>
</g>
<g>
</g>
</svg>
