<?xml version="1.0" encoding="iso-8859-1"?>
<!-- Generator: Adobe Illustrator 16.0.0, SVG Export Plug-In . SVG Version: 6.00 Build 0)  -->
<!DOCTYPE svg PUBLIC "-//W3C//DTD SVG 1.1//EN" "http://www.w3.org/Graphics/SVG/1.1/DTD/svg11.dtd">
<svg version="1.1" id="Capa_1" xmlns="http://www.w3.org/2000/svg" xmlns:xlink="http://www.w3.org/1999/xlink" x="0px" y="0px"
	 width="792.049px" height="792.05px" viewBox="0 0 792.049 792.05" style="enable-background:new 0 0 792.049 792.05;"
	 xml:space="preserve">
<g>
	<g id="interface_-_arrow_left">
		<g>
			<path d="M244.143,395.967L618.01,53.649c12.318-12.251,12.318-32.209,0-44.461c-12.316-12.251-32.274-12.251-44.592,0
				L184.269,365.47c-3.82,1.516-7.377,3.82-10.473,6.916c-6.521,6.521-9.353,15.15-8.958,23.713
				c-0.329,8.431,2.569,16.994,9.024,23.449c3.03,3.029,6.521,5.27,10.275,6.85l389.282,356.414
				c12.317,12.317,32.275,12.317,44.592,0c12.318-12.317,12.318-32.21,0-44.527L244.143,395.967z"/>
		</g>
	</g>
</g>
<g>
</g>
<g>
</g>
<g>
</g>
<g>
</g>
<g>
</g>
<g>
</g>
<g>
</g>
<g>
</g>
<g>
</g>
<g>
</g>
<g>
</g>
<g>
</g>
<g>
</g>
<g>
</g>
<g>
</g>
</svg>
