<?xml version="1.0" encoding="iso-8859-1"?>
<!-- Generator: Adobe Illustrator 16.0.0, SVG Export Plug-In . SVG Version: 6.00 Build 0)  -->
<!DOCTYPE svg PUBLIC "-//W3C//DTD SVG 1.1//EN" "http://www.w3.org/Graphics/SVG/1.1/DTD/svg11.dtd">
<svg version="1.1" id="Capa_1" xmlns="http://www.w3.org/2000/svg" xmlns:xlink="http://www.w3.org/1999/xlink" x="0px" y="0px"
	 width="51.561px" height="51.561px" viewBox="0 0 51.561 51.561" style="enable-background:new 0 0 51.561 51.561;"
	 xml:space="preserve">
<g>
	<g>
		<path d="M31.3,0c-0.643,0-1.168,0.523-1.168,1.168s0.525,1.168,1.168,1.168h16.271L20.195,29.711
			c-0.455,0.456-0.455,1.197,0,1.651c0.229,0.23,0.528,0.342,0.827,0.342s0.598-0.116,0.827-0.342L49.225,3.987v16.269
			c0,0.646,0.522,1.168,1.168,1.168c0.644,0,1.168-0.522,1.168-1.168V0H31.3z"/>
		<polygon points="40.361,49.223 2.335,49.225 2.335,11.2 31.004,11.2 31.004,8.864 0,8.864 0,51.561 42.697,51.559 42.697,20.555 
			40.361,20.555 		"/>
	</g>
</g>
<g>
</g>
<g>
</g>
<g>
</g>
<g>
</g>
<g>
</g>
<g>
</g>
<g>
</g>
<g>
</g>
<g>
</g>
<g>
</g>
<g>
</g>
<g>
</g>
<g>
</g>
<g>
</g>
<g>
</g>
</svg>
