<?xml version="1.0" encoding="UTF-8" standalone="no"?>
<svg width="470px" height="477px" viewBox="0 0 470 477" version="1.1" xmlns="http://www.w3.org/2000/svg" xmlns:xlink="http://www.w3.org/1999/xlink" xmlns:sketch="http://www.bohemiancoding.com/sketch/ns">
    <!-- Generator: Sketch 3.5.1 (25234) - http://www.bohemiancoding.com/sketch -->
    <title>console</title>
    <desc>Created with Sketch.</desc>
    <defs></defs>
    <g id="Page-1" stroke="none" stroke-width="1" sketch:type="MSPage">
        <g id="console" sketch:type="MSLayerGroup" transform="translate(0.000000, -1.000000)">
            <g id="Group" sketch:type="MSShapeGroup">
                <path d="M300.879,240.022 C297.37,244.499 293.836,248.952 290.312,253.42 C317.637,276.799 339.137,295.501 346.591,302.722 C354.503,310.385 365.441,297.294 357.59,289.687 C350.136,282.467 328.427,263.592 300.879,240.022 L300.879,240.022 Z" id="Shape"></path>
                <path d="M372.986,346.373 C358.59,333.79 322.44,302.185 280.551,265.704 C277.001,270.147 273.402,274.551 269.812,278.953 C311.578,315.332 347.596,346.825 361.992,359.408 C370.279,366.649 381.259,353.6 372.986,346.373 L372.986,346.373 Z" id="Shape"></path>
                <path d="M248.048,304.968 C278.449,330.535 302.931,351.213 312.041,359.109 C320.353,366.325 331.337,353.275 323.039,346.074 C313.939,338.188 289.459,317.506 259.062,291.938 C255.411,296.299 251.77,300.661 248.048,304.968 L248.048,304.968 Z" id="Shape"></path>
                <path d="M29.845,155.479 C29.314,156.106 28.926,156.756 28.614,157.406 C25.999,160.674 25.415,165.597 29.492,169.129 C45.975,183.391 79.878,211.698 119.839,244.895 C123.922,240.864 128.002,236.829 132.049,232.769 C94.119,201.258 62.219,174.657 46.983,161.624 C51.134,156.711 55.308,151.828 59.485,146.94 C70.872,156.444 105.43,185.345 145.63,219.025 C149.619,214.947 153.544,210.824 157.497,206.715 C116.977,172.772 82.051,143.566 70.605,134.011 C74.955,128.984 79.296,123.949 83.694,118.968 C97.884,130.358 131.45,159.049 170.74,192.98 C174.64,188.841 178.43,184.606 182.287,180.432 C142.9,146.414 109.235,117.627 95.06,106.235 C98.061,102.912 101.044,99.581 104.081,96.288 C114.809,105.253 150.72,135.325 191.861,169.987 C195.688,165.78 199.588,161.629 203.373,157.381 C162.279,122.757 126.406,92.711 115.755,83.819 C119.168,80.241 122.598,76.694 126.066,73.17 C142.3,85.763 175.226,112.87 213.991,145.125 C217.731,140.839 221.473,136.551 225.17,132.224 C185.958,99.596 152.57,72.129 135.597,58.995 C134.277,53.364 125.956,49.23 120.378,54.758 C119.446,55.677 118.542,56.624 117.615,57.546 C117.506,57.462 117.43,57.368 117.316,57.284 C106.01,49.41 95.417,40.671 84.893,31.795 C84.227,31.234 83.547,30.838 82.862,30.521 C79.589,27.855 74.484,27.122 70.703,30.983 C46.103,56.125 23.463,82.817 2.897,111.368 C2.379,112.092 2.029,112.83 1.75,113.574 C-0.091,116.796 -0.259,121.123 3.001,124.471 C12.446,134.185 22.013,143.762 32.199,152.697 C31.416,153.626 30.629,154.548 29.845,155.479 L29.845,155.479 Z M19.742,117.285 C37.624,92.949 56.984,69.935 77.844,48.116 C86.86,55.657 95.983,63.035 105.613,69.796 C83.955,92.315 63.461,115.881 43.23,139.692 C35.088,132.547 27.333,124.996 19.742,117.285 L19.742,117.285 Z" id="Shape"></path>
                <path d="M454.671,324.432 C454.265,323.909 453.782,323.396 453.198,322.913 C430.84,304.592 378.501,260.57 321.972,213.15 C318.449,217.621 314.924,222.087 311.415,226.571 C365.561,271.986 415.188,313.721 435.987,330.824 C412.538,363.308 385.533,392.634 354.877,418.439 C335.286,401.576 288,362.21 235.743,318.815 C231.937,323.054 228.108,327.269 224.208,331.428 C277.661,375.759 326.11,416.052 346.905,434.049 C347.57,434.628 348.251,435.028 348.936,435.359 C350.291,437.066 352.175,438.233 354.257,438.436 C355.268,439.234 356.527,439.848 358.106,440.117 C391.895,445.896 425.781,450.756 460.032,452.645 C465.491,452.95 468.974,448.832 469.68,444.591 C469.822,443.941 469.903,443.255 469.898,442.519 C469.604,404.053 465.044,366.07 456.919,328.488 C456.514,326.676 455.701,325.365 454.671,324.432 L454.671,324.432 Z M373.017,425.28 C399.209,402.297 422.877,376.877 443.794,348.983 C446.617,364.1 448.699,379.334 450.172,394.624 C449.526,394.979 448.898,395.401 448.303,395.949 C436.355,407.019 425.34,418.922 414.779,431.312 C400.829,429.591 386.91,427.55 373.017,425.28 L373.017,425.28 Z M435.405,433.577 C440.721,427.61 446.18,421.786 451.827,416.135 C452.187,422.442 452.487,428.753 452.639,435.071 C446.881,434.654 441.143,434.136 435.405,433.577 L435.405,433.577 Z" id="Shape"></path>
                <path d="M232.786,292.13 C236.216,287.575 239.659,283.041 243.092,278.511 C246.566,273.931 250.094,269.397 253.659,264.898 C257.188,260.444 260.808,256.067 264.506,251.741 C266.588,249.313 268.613,246.85 270.772,244.474 C272.087,243.022 273.418,241.579 274.733,240.121 C278.557,235.914 282.385,231.707 286.219,227.505 C290.012,223.336 293.785,219.144 297.564,214.965 C301.382,210.743 305.175,206.498 308.954,202.24 C317.612,192.48 326.098,182.565 334.369,172.44 C335.994,170.449 337.681,168.515 339.29,166.501 C371.169,177.142 410.681,177.589 433.603,148.807 C456.585,119.949 454.503,82.976 441.428,50.292 C441.336,50.01 441.24,49.728 441.113,49.474 C440.981,49.157 440.87,48.834 440.737,48.522 C437.214,40.011 424.553,44.556 426.128,52.678 C420.269,72.947 407.934,92.471 386.521,98.41 C370.712,102.787 352.072,99.652 338.27,90.801 C327.428,83.849 314.398,71.741 316.277,57.357 C319.019,36.449 342.916,26.229 360.232,19.912 C362.558,19.064 363.923,17.536 364.533,15.774 C370.998,12.961 371.52,1.827 363.111,1.339 C328.215,-0.705 291.07,6.117 265.162,31.254 C242.997,52.759 242.357,82.275 252.554,108.985 C253.412,111.232 254.317,113.464 255.322,115.663 C256.485,118.217 241.257,137.008 239.22,139.986 C238.654,140.819 238.039,141.621 237.473,142.446 C234.233,147.148 230.879,151.764 227.55,156.398 C225.362,159.44 223.262,162.545 221.035,165.561 C220.022,166.932 218.935,168.255 217.914,169.621 C214.504,174.176 211.021,178.68 207.509,183.157 C204.546,186.947 201.555,190.713 198.518,194.445 C194.935,198.855 191.29,203.217 187.603,207.544 C186.085,209.329 184.645,211.175 183.106,212.941 C180.552,215.879 177.942,218.766 175.347,221.666 C171.551,225.906 167.715,230.11 163.84,234.277 C162.035,236.217 160.257,238.177 158.437,240.096 C155.858,242.824 153.187,245.459 150.577,248.151 C146.619,252.233 142.699,256.351 138.664,260.358 C138.641,260.379 138.601,260.424 138.575,260.444 C135.985,263.065 121.295,280.274 118.664,279.609 C118.499,279.568 118.331,279.538 118.159,279.497 C88.064,272.048 55.903,276.826 37.407,304.506 C17.362,334.523 17.346,372.287 25.639,406.243 C27.642,414.429 38.493,411.905 40.096,405.04 C41.718,404.131 42.975,402.511 43.387,400.063 C46.492,381.91 52.233,356.56 72.304,350.09 C86.111,345.642 100.372,356.271 109.165,365.685 C120.362,377.664 126.809,395.437 125.349,411.768 C123.371,433.913 106.391,449.563 87.508,458.983 C79.241,458.902 77.048,472.171 86.058,474.1 C86.391,474.171 86.728,474.227 87.061,474.293 C87.338,474.374 87.622,474.42 87.919,474.46 C122.431,481.427 159.173,476.807 183.416,448.994 C204.314,425.02 201.473,392.791 189.852,365.476 C188.026,361.195 186.011,357.021 183.814,353.03 C183.004,351.562 204.189,328.788 206.319,326.152 C207.858,324.254 209.325,322.278 210.854,320.369 C214.406,315.91 217.9,311.416 221.383,306.907 C223.666,303.962 226.027,301.072 228.279,298.101 C229.795,296.116 231.288,294.121 232.786,292.13 L232.786,292.13 Z M199.132,310.649 C193.089,318.236 186.932,325.72 180.676,333.134 C177.093,337.374 173.579,341.681 169.918,345.855 C167.793,348.277 167.61,350.989 168.529,353.289 C168.229,354.93 168.448,356.727 169.502,358.535 C169.725,358.921 169.928,359.306 170.147,359.692 C171.77,362.541 173.298,365.441 174.687,368.396 C185.457,391.348 188.4,417.119 172.003,438.888 C157.716,457.855 133.857,463.156 111.014,462.059 C126.281,450.552 137.722,435.141 140.286,414.915 C143.115,392.557 133.872,370.767 119.278,354.259 C106.413,339.7 86.7,330.585 67.361,335.653 C51.279,339.873 41.603,353.96 35.669,369.458 C35.222,352.223 38.206,335.095 46.143,319.257 C60.577,290.449 91.37,287.494 119.289,295.518 C121.731,296.218 123.72,295.706 125.2,294.568 C125.799,294.106 126.33,293.578 126.751,292.938 C131.71,285.408 141.726,278.816 148.19,272.413 C148.921,271.687 149.62,270.926 150.353,270.199 C154.408,266.152 158.371,262.024 162.347,257.905 C164.833,255.331 167.387,252.833 169.84,250.233 C171.764,248.202 173.6,246.088 175.505,244.038 C179.372,239.866 183.236,235.682 187.022,231.434 C191.115,226.841 195.099,222.151 199.085,217.467 C202.269,213.727 205.524,210.046 208.634,206.239 C209.121,205.642 209.583,205.028 210.069,204.429 C213.146,200.648 216.142,196.802 219.153,192.97 C222.667,188.491 226.14,183.99 229.568,179.44 C232.864,175.06 236.162,170.683 239.374,166.242 C242.723,161.613 245.968,156.919 249.218,152.229 C252.701,147.205 256.145,142.162 259.522,137.071 C263.025,131.798 266.529,126.534 269.906,121.195 C271.831,119.354 272.684,116.582 271.099,113.39 C258.17,87.38 255.525,56.56 281.265,37.164 C295.408,26.505 311.718,20.483 328.754,17.812 C314.581,26.442 302.471,38.502 301.222,55.079 C299.719,75.016 312.241,92.758 328.881,102.787 C347.756,114.164 370.846,119.328 392.325,112.511 C411.759,106.344 424.859,92.313 433.416,75.223 C438.616,97.493 437.707,121.917 421.625,139.388 C400.476,162.366 369.561,161.318 342.14,151.42 C340.175,150.709 338.362,150.816 336.803,151.41 C334.381,150.923 331.75,151.588 329.749,154.114 C326.886,157.721 323.874,161.17 320.944,164.706 C313.165,174.07 305.213,183.258 297.088,192.269 C293.275,196.496 289.476,200.734 285.627,204.931 C281.839,209.055 278.061,213.183 274.263,217.306 C270.418,221.488 266.61,225.721 262.782,229.928 C259.354,233.698 255.896,237.441 252.494,241.257 C252.473,241.287 252.448,241.313 252.423,241.338 C248.645,245.568 245.066,249.936 241.592,254.368 C237.982,258.969 234.488,263.651 231.045,268.373 C227.686,272.975 224.37,277.605 221.016,282.221 C217.642,286.863 214.234,291.489 210.721,296.049 C210.409,296.455 210.081,296.846 209.769,297.252 C206.266,301.769 202.679,306.191 199.132,310.649 L199.132,310.649 Z" id="Shape"></path>
            </g>
        </g>
    </g>
</svg>