<?xml version='1.0' encoding='utf-8'?>
<!DOCTYPE svg PUBLIC '-//W3C//DTD SVG 1.1//EN' 'http://www.w3.org/Graphics/SVG/1.1/DTD/svg11.dtd'>
<svg version="1.1" xmlns="http://www.w3.org/2000/svg" viewBox="0 0 512 512" xmlns:xlink="http://www.w3.org/1999/xlink" enable-background="new 0 0 512 512">
  <g>
    <g>
      <path d="M497.6,469.1L274.2,22.4c-11.1-19.3-32.3-10.4-36.5,0L13,471.4c-7.7,18,8,30.1,18.3,29.5h449.2c0.1,0,0.1,0,0.2,0    C496.8,501.8,506.5,482.7,497.6,469.1z M64.3,460.2l191.6-383l191.6,383H64.3z"/>
      <path d="m235.5,203.3v125.9c0,11.3 9.1,20.4 20.4,20.4 11.3,0 20.4-9.1 20.4-20.4v-125.9c0-11.3-9.1-20.4-20.4-20.4-11.3,0-20.4,9.1-20.4,20.4z"/>
      <ellipse cx="255.9" cy="401" rx="20.5" ry="20.5"/>
    </g>
  </g>
</svg>
