<?xml version="1.0" encoding="UTF-8" standalone="no"?>
<svg width="1342px" height="1343px" viewBox="0 0 1342 1343" version="1.1" xmlns="http://www.w3.org/2000/svg" xmlns:xlink="http://www.w3.org/1999/xlink" xmlns:sketch="http://www.bohemiancoding.com/sketch/ns">
    <!-- Generator: Sketch 3.5.1 (25234) - http://www.bohemiancoding.com/sketch -->
    <title>Small White</title>
    <desc>Created with Sketch.</desc>
    <defs></defs>
    <g id="Page-1" stroke="none" sketch:type="MSPage">
        <g id="Small-White" sketch:type="MSLayerGroup">
            <g id="Group-2-Copy-6" transform="translate(26.077537, 566.483099)" sketch:type="MSShapeGroup">
                <path d="M660.389918,8.849759 C624.527054,2.97403591 588.051686,0 551.209991,0 C332.712094,0 131.810557,105.303721 6.62336232,279.353904 L0.00345935443,288.557683 L3.27147912,299.413683 C44.3610825,435.908787 128.314658,555.6389 241.804551,641.297108 C357.195014,728.389801 497.645816,776.275535 645.29437,776.275535 C659.85101,776.275535 674.35364,775.811241 688.787634,774.886448 L730.754232,772.197629 L705.849931,738.312515 C627.717288,632.004236 584.921323,503.726883 584.921323,368.926601 C584.921323,252.450577 616.84151,140.724102 676.290832,43.5500747 L694.137247,14.3788758 L660.389918,8.849759 L660.389918,8.849759 Z M652.9525,54.2445255 L637.051586,19.5442098 C573.211958,123.894496 538.921323,243.917969 538.921323,368.926601 C538.921323,513.610968 584.895387,651.414408 668.784126,765.554507 L687.317028,751.933511 L685.846423,728.980574 C672.391394,729.842644 658.869668,730.275535 645.29437,730.275535 C507.733856,730.275535 376.991776,685.699923 269.516394,604.581257 C163.783722,524.777928 85.5773773,413.244209 47.3189388,286.15392 L43.9670556,306.213699 C160.600812,144.055527 347.674031,46 551.209991,46 C585.557819,46 619.545908,48.7712344 652.9525,54.2445255 L652.9525,54.2445255 Z" id="Shape"></path>
                <path d="M590.906189,159.649104 C577.704553,158.633178 564.424116,158.122674 551.084379,158.122674 C349.385604,158.122674 169.036902,275.799058 85.9214739,455.715641 L80.5115378,467.42631 L87.6835194,478.148709 C211.31627,662.984612 418.711244,776.275535 645.29437,776.275535 C659.85101,776.275535 674.35364,775.811241 688.787634,774.886448 L730.754233,772.197629 L705.849931,738.312515 C627.717289,632.004239 584.921323,503.726884 584.921323,368.926601 C584.921323,307.347676 593.829442,246.988189 611.171188,189.191233 L619.37777,161.84012 L590.906189,159.649104 L590.906189,159.649104 Z M587.376716,205.5135 L589.141452,182.581302 L567.111727,175.97137 C548.486629,238.045542 538.921323,302.857988 538.921323,368.926601 C538.921323,513.61097 584.895388,651.414412 668.784126,765.554507 L687.317028,751.933511 L685.846423,728.980574 C672.391394,729.842644 658.869668,730.275535 645.29437,730.275535 C434.230417,730.275535 241.102297,624.777979 125.918757,452.573983 L127.680802,475.007051 C203.341633,311.22713 367.487989,204.122674 551.084379,204.122674 C563.246018,204.122674 575.349099,204.58792 587.376716,205.5135 L587.376716,205.5135 Z" id="Shape"></path>
                <path d="M563.540411,312.50903 C559.478817,312.372831 555.408527,312.304596 551.330673,312.304596 C382.580226,312.304596 237.751024,429.907144 201.639088,592.545293 L198.64916,606.011101 L209.120145,614.990307 C329.74738,718.432027 483.081633,776.275535 645.29437,776.275535 C659.85101,776.275535 674.35364,775.811241 688.787634,774.886448 L730.754234,772.197629 L705.84993,738.312514 C627.717291,632.004245 584.921323,503.726887 584.921323,368.926601 C584.921323,358.136787 585.194783,347.380582 585.739874,336.664536 L586.928696,313.293322 L563.540411,312.50903 L563.540411,312.50903 Z M561.998736,358.483188 L562.769574,335.496109 L539.799271,334.327682 C539.214593,345.821951 538.921323,357.357359 538.921323,368.926601 C538.921323,513.610973 584.89539,651.414419 668.784126,765.554507 L687.317028,751.933511 L685.846423,728.980574 C672.391394,729.842644 658.869668,730.275535 645.29437,730.275535 C494.170529,730.275535 351.430092,676.428417 239.064382,580.071219 L246.545439,602.516233 C278.007496,460.819852 404.256484,358.304596 551.330673,358.304596 C554.894494,358.304596 558.450821,358.364214 561.998736,358.483188 L561.998736,358.483188 Z" id="Shape"></path>
                <path d="M576.546167,469.553706 C568.142285,468.497121 559.643407,467.964299 551.084379,467.964299 C439.355918,467.964299 348.782212,558.539041 348.782212,670.268515 C348.782212,679.082098 349.347181,687.831737 350.46716,696.479337 L352.096048,709.056337 L363.601414,714.391199 C451.117961,754.971282 546.721396,776.275535 645.29437,776.275535 C659.85101,776.275535 674.35364,775.811241 688.787634,774.886448 L730.754238,772.197628 L705.849929,738.312513 C651.372259,664.18951 613.812563,578.928292 596.260021,488.014029 L593.097707,471.634662 L576.546167,469.553706 L576.546167,469.553706 Z M570.807952,515.194399 L573.677059,492.374053 L551.094097,496.734077 C569.947931,594.38845 610.291051,685.968094 668.784127,765.554509 L687.317028,751.933511 L685.846423,728.980574 C672.391394,729.842644 658.869668,730.275535 645.29437,730.275535 C553.439414,730.275535 464.435532,710.441925 382.951897,672.659212 L373.276656,693.525205 L396.086152,690.571074 C395.219751,683.881408 394.782212,677.105264 394.782212,670.268515 C394.782212,583.944021 464.761135,513.964299 551.084379,513.964299 C557.723872,513.964299 564.306281,514.376971 570.807952,515.194399 L570.807952,515.194399 Z" id="Shape"></path>
            </g>
            <g id="Group-7-Copy" transform="translate(570.909920, 267.478542)" sketch:type="MSShapeGroup">
                <path d="M621.776405,0.258651047 C272.450835,25.3028895 0,316.771414 0,668.916347 C0,813.013559 45.6003758,950.291561 128.860409,1064.17677 L136.37399,1074.45404 L149.072311,1073.54366 C498.397881,1048.49942 770.848716,757.030897 770.848716,404.885963 C770.848716,260.788703 725.24831,123.510659 641.988226,9.62542608 L623.421047,23.1996611 L604.854458,36.7747035 L604.854537,36.7748115 L623.421126,23.1997691 L621.776405,0.258651047 L621.776405,0.258651047 Z M625.065846,46.1408871 L666.514004,43.1693394 L641.987715,9.62472665 L641.987636,9.62461866 L604.853867,36.773896 C682.400613,142.844281 724.848716,270.632454 724.848716,404.885963 C724.848716,732.860434 471.082931,1004.33965 145.782871,1027.66142 L165.994773,1037.02831 C88.4480748,930.957945 46,803.169812 46,668.916347 C46,340.941877 299.765785,69.4626619 625.065846,46.1408871 L625.065846,46.1408871 Z" id="Shape"></path>
                <path d="M709.879851,158.155734 C696.745085,157.150173 683.53244,156.644892 670.261117,156.644892 C387.413808,156.644892 158.120867,385.940454 158.120867,668.790733 C158.120867,805.632706 212.063902,934.003681 306.473522,1029.27526 L316.856453,1039.75298 L330.710042,1034.68681 C458.134161,988.08861 568.528203,903.501415 647.076305,793.091584 C727.140337,680.550912 770.848716,545.972295 770.848716,404.885963 C770.848716,324.848226 756.808626,246.704594 729.706172,173.137699 L724.601957,159.282818 L709.879851,158.155734 L709.879851,158.155734 Z M706.368494,204.021521 L708.124172,181.088628 L686.542172,189.039556 C711.775627,257.533243 724.848716,330.294787 724.848716,404.885963 C724.848716,536.335391 684.161987,661.610313 609.593884,766.425724 C536.415063,869.288314 433.567597,948.093099 314.911385,991.484932 L339.147906,996.896488 C253.190376,910.15417 204.120867,793.380971 204.120867,668.790733 C204.120867,411.345435 412.819024,202.644892 670.261117,202.644892 C682.360406,202.644892 694.401745,203.10538 706.368494,204.021521 L706.368494,204.021521 Z" id="Shape"></path>
                <path d="M749.921983,319.665913 C724.054982,313.809265 697.466868,310.826814 670.507412,310.826814 C472.675429,310.826814 312.301026,471.203049 312.301026,669.03703 C312.301026,783.062834 365.968763,888.214494 455.360531,955.4621 L468.645846,965.456372 L482.302806,955.976261 C661.649725,831.48086 770.848716,627.36752 770.848716,404.885963 C770.848716,383.082086 769.807068,361.401767 767.737238,339.894785 L766.14389,323.338778 L749.921983,319.665913 L749.921983,319.665913 Z M739.764054,364.530336 L744.843019,342.098124 L721.948799,344.301462 C723.877724,364.344339 724.848716,384.55408 724.848716,404.885963 C724.848716,612.131468 623.163701,802.199781 456.071858,918.188202 L483.014133,918.702363 C405.053634,860.054267 358.301026,768.451479 358.301026,669.03703 C358.301026,496.60803 498.080645,356.826814 670.507412,356.826814 C694.043408,356.826814 717.224701,359.427113 739.764054,364.530336 L739.764054,364.530336 Z" id="Shape"></path>
                <path d="M749.353265,482.538187 C724.547532,471.992429 697.769021,466.486517 670.261117,466.486517 C558.532657,466.486517 467.958951,557.061259 467.958951,668.790733 C467.958951,745.971084 511.578313,815.373837 579.257558,849.513982 L595.249347,857.580886 L606.988118,844.052638 C689.461666,749.006692 743.872677,632.656833 763.089522,507.186818 L765.794163,489.527771 L749.353265,482.538187 L749.353265,482.538187 Z M731.355994,524.871369 L717.619737,500.222728 C699.727882,617.041648 649.067886,725.37052 572.24459,813.904881 L599.975149,808.443537 C547.654253,782.050764 513.958951,728.438179 513.958951,668.790733 C513.958951,582.466239 583.937873,512.486517 670.261117,512.486517 C691.556162,512.486517 712.216294,516.734433 731.355994,524.871369 L731.355994,524.871369 Z" id="Shape"></path>
            </g>
            <g id="Group-5" sketch:type="MSShapeGroup">
                <path d="M1208.63371,270.686583 C1082.91586,101.658332 885.092582,0 670.38673,0 C300.142304,0 0,300.145734 0,670.394129 C0,737.357476 9.82621736,803.02808 28.9494081,865.860948 L50.9528933,859.164185 L72.9563785,852.467421 C72.7737819,851.867466 72.5920885,851.267206 72.4112991,850.666643 L50.3875693,857.296524 L69.0594159,870.726422 C128.584248,787.967894 207.593175,720.72152 298.880341,675.369369 L298.985738,675.31667 C385.188314,631.938518 480.560453,609.034941 579.257882,609.034941 C615.523969,609.034941 651.387376,612.124362 686.586102,618.22074 L702.081639,620.904549 L710.205092,607.438888 C813.043284,436.971435 991.481188,324.228749 1192.10889,307.331728 L1233.30843,303.861871 L1208.63371,270.686583 L1208.63371,270.686583 Z M1171.72359,298.139153 L1188.2484,261.494008 C972.794295,279.63972 781.20884,400.689442 670.817383,583.677398 L694.436373,572.895546 C656.647778,566.350605 618.158036,563.034941 579.257882,563.034941 C473.338221,563.034941 370.889836,587.637876 278.3084,634.225945 L278.413797,634.173246 C180.403667,682.865416 95.6060227,755.038704 31.7157226,843.866627 L25.0958197,853.070407 L28.3638394,863.926406 C28.5580581,864.571579 28.753248,865.216427 28.9494081,865.860948 L72.9563785,852.467421 C55.1509835,793.964421 46,732.806542 46,670.394129 C46,325.550715 325.54752,46 670.38673,46 C870.39191,46 1054.59492,140.659086 1171.72359,298.139153 L1171.72359,298.139153 Z" id="Shape"></path>
                <path d="M708.1534,607.127159 C812.933697,437.095187 993.134137,325.908121 1194.79217,311.450629 L1236.24033,308.479081 L1211.71404,274.934468 L1211.71396,274.93436 L1174.58019,302.083638 C1186.01527,317.724834 1196.71879,333.88809 1206.65211,350.520979 L1246.6328,327.79277 C1149.77991,148.582195 962.449986,34.4815799 755.010862,34.4815799 C446.577387,34.4815799 196.542759,284.519065 196.542759,592.955803 C196.542759,626.701893 199.538421,660.077649 205.447738,692.807948 L211.544525,726.576593 L240.462992,708.104602 C259.264783,696.09475 278.697903,685.099155 298.681916,675.170947 L298.787314,675.118247 C384.989866,631.740099 480.362021,608.836517 579.05946,608.836517 C614.74882,608.836517 650.048681,611.828457 684.709623,617.734043 L700.0105,620.341031 L708.1534,607.127159 L708.1534,607.127159 Z M668.992056,582.99442 L692.435833,572.387536 C655.225122,566.047516 617.340728,562.836517 579.05946,562.836517 C473.139788,562.836517 370.691386,587.439457 278.109974,634.027523 L278.215372,633.974824 C256.754979,644.636509 235.887974,656.44342 215.700604,669.338326 L250.715857,684.63498 C245.292927,654.598663 242.542759,623.958045 242.542759,592.955803 C242.542759,309.924046 471.982603,80.4815799 755.010862,80.4815799 C945.383772,80.4815799 1117.26779,185.174259 1206.16463,349.663462 L1226.39872,338.728116 L1246.14532,326.935252 C1235.48064,309.077739 1223.98989,291.725693 1211.71455,274.935168 L1193.14737,288.509403 L1174.58078,302.084445 L1174.58086,302.084553 L1193.14745,288.509511 L1191.50273,265.568393 C974.950095,281.093725 781.466541,400.476723 668.992056,582.99442 L668.992056,582.99442 Z" id="Shape"></path>
                <path d="M412.054061,613.090361 C411.685537,606.553597 411.50057,599.988612 411.50057,593.400243 C411.50057,403.436917 565.494406,249.441322 755.455297,249.441322 C845.708494,249.441322 930.411935,284.323047 994.101367,345.701482 L1001.88032,307.644597 C863.765472,360.211028 746.611542,457.496078 669.166869,583.169236 L692.610646,572.562352 C655.399935,566.222332 617.515541,563.011333 579.234273,563.011333 C511.763368,563.011333 445.606226,572.987451 382.34435,592.396593 L389.090525,614.384979 L412.054061,613.090361 L412.054061,613.090361 Z M366.12699,615.679598 L367.778956,644.981658 L395.836701,636.373365 C454.738813,618.301826 516.349197,609.011333 579.234273,609.011333 C614.923634,609.011333 650.223494,612.003273 684.884436,617.908859 L700.185313,620.515846 L708.328213,607.301975 C780.473644,490.228151 889.62613,399.587529 1018.24285,350.636078 L1052.12896,337.739044 L1026.0218,312.579193 C953.843404,243.01982 857.734768,203.441322 755.455297,203.441322 C540.089189,203.441322 365.50057,378.031936 365.50057,593.400243 C365.50057,600.852335 365.709863,608.280741 366.12699,615.679598 L366.12699,615.679598 Z" id="Shape"></path>
                <path d="M708.247157,607.336826 C748.451468,542.095378 800.405161,484.677246 861.293821,438.117586 L889.714705,416.385022 L858.14427,399.551763 C826.687679,382.779204 791.512352,373.878845 755.104619,373.878845 C636.828717,373.878845 539.968725,467.681207 535.949501,585.572183 L535.113367,610.097471 L559.641365,609.345046 C566.13207,609.145937 572.636599,609.046183 579.153217,609.046183 C614.842578,609.046183 650.142438,612.038123 684.80338,617.943709 L700.104257,620.550697 L708.247157,607.336826 L708.247157,607.336826 Z M669.085813,583.204086 L692.52959,572.597203 C655.318879,566.257183 617.434485,563.046183 579.153217,563.046183 C572.166347,563.046183 565.191616,563.153148 558.230927,563.366675 L558.936146,586.355861 L581.922791,587.139538 C585.097871,494.008796 661.6442,419.878845 755.104619,419.878845 C783.917164,419.878845 811.666065,426.900107 836.501521,440.142296 L833.35197,401.576473 C768.000887,451.548409 712.243019,513.170835 669.085813,583.204086 L669.085813,583.204086 Z" id="Shape"></path>
            </g>
        </g>
    </g>
</svg>